<?xml version="1.0" encoding="utf-8"?>
<!-- Generator: Adobe Illustrator 23.0.4, SVG Export Plug-In . SVG Version: 6.00 Build 0)  -->
<svg version="1.1" id="Layer_0_xA0_Image_1_" xmlns="http://www.w3.org/2000/svg" xmlns:xlink="http://www.w3.org/1999/xlink"
	 x="0px" y="0px" viewBox="0 0 1117.09 1117.09" style="enable-background:new 0 0 1117.09 1117.09;" xml:space="preserve">
<style type="text/css">
	.st0{fill:#2D334D;}
	.st1{fill:#EFA9A1;}
	.st2{fill:#2E344E;}
	.st3{fill:#F0ACA4;}
	.st4{fill:#F0ABA4;}
</style>
<g>
	<g>
		<path class="st0" d="M586.7,598.33c0.86,61.43,1.89,122.86,2.52,184.3c0.38,37.08,0.29,74.16,0.11,111.24
			c-0.07,14.93-1.74,29.79-6.2,44.11c-2.15,6.9-4.74,13.79-8.12,20.16c-12.25,23.09-31.86,36.21-57.36,40.73
			c-13,2.3-26.11,2.82-38.92-0.9c-36.9-10.7-75.63-38.33-82.76-88.11c-2.23-15.58-0.67-31.19,3.36-46.48
			c3.82-14.49,9.69-28.15,17.17-41.07c6.37-10.99,13.29-21.66,19.99-32.47c0.67-1.08,1.5-2.06,2.14-3.15
			c4.53-7.64,11.06-10.9,20.03-10.3c7.6,0.51,15.26,0.1,22.9,0.11c1.82,0,3.64-0.01,5.45,0.13c5.5,0.44,6.73,2.58,4.29,7.46
			c-4.81,9.58-9.94,19-14.42,28.73c-6.16,13.37-11.81,26.97-14.27,41.62c-1.48,8.82-2.19,17.64-0.52,26.56
			c2.63,14.05,16.34,25.21,30.01,24.1c9.06-0.74,16.07-5.37,21.67-12.26c7.15-8.79,11.54-18.74,12.87-30.11
			c2.75-23.5,3.26-47.12,3.74-70.72c1.14-55.06,2.05-110.12,3.1-165.17c0.7-36.88,1.47-73.77,2.24-110.65
			c0.59-28.34,1.24-56.67,1.87-85.01c0.76-34.15,1.52-68.31,2.3-102.46c0.25-10.9,0.53-21.79,0.87-32.69
			c0.29-9.45,5.05-13.66,14.63-13.3c5.26,0.2,10.53,0.22,15.8,0.21c6.98-0.02,10.81,3.58,10.92,10.65
			c0.48,30.16,0.91,60.33,1.37,90.49c0.98,63.79,1.98,127.58,2.94,191.37c0.11,7.63,0.02,15.27,0.02,22.9
			C586.53,598.33,586.62,598.33,586.7,598.33z"/>
		<path class="st1" d="M645.64,856.65c1.18,7.56,2.38,14.68,3.37,21.83c1.04,7.53,2.06,15.08,2.74,22.65
			c0.61,6.86,1.09,13.77,1.02,20.65c-0.18,17.05-0.89,34.1-5.39,50.69c-1.27,4.7-2.96,9.39-5.19,13.71
			c-5.21,10.1-13.88,15.91-25.06,16.97c-12.98,1.24-26.05,1.66-39.08,2.29c-1.92,0.09-4.02-0.32-5.78-1.09
			c-3.12-1.36-3.6-3.21-1.72-6.05c1.29-1.96,2.79-3.83,4.46-5.47c11.91-11.65,18.78-26.1,23.54-41.77
			c3.94-12.96,4.95-26.31,5.51-39.73c0.29-7.06,0.88-14.13,0.81-21.19c-0.14-13.43-0.68-26.86-1.04-40.29
			c-0.36-13.61-0.72-27.22-1.06-40.83c-0.39-15.79-0.74-31.58-1.13-47.37c-0.34-14.16-0.72-28.31-1.06-42.47
			c-0.38-15.61-0.76-31.22-1.11-46.83c-0.38-16.52-0.71-33.04-1.11-49.56c-0.25-10.34-0.69-20.68-0.85-31.02
			c-0.11-7.05,1.98-9.3,8.95-9.34c4.32-0.02,8.68,0.48,12.96,1.15c3.86,0.6,5.94,3.57,6.65,7.11c1.21,6.02,2.12,12.11,2.89,18.21
			c1.44,11.32,2.71,22.66,4.02,33.99c0.89,7.74,1.73,15.48,2.59,23.22c1.11,9.9,2.16,19.81,3.37,29.69
			c0.48,3.92,3.02,5.27,6.63,3.63c5.62-2.55,9.76-6.97,13.44-11.7c2.99-3.85,5.42-8.14,8.09-12.25c0.99-1.52,1.83-3.16,2.93-4.59
			c2.39-3.1,5.15-2.97,6.62,0.64c1.56,3.83,2.99,7.87,3.49,11.94c1.26,10.31-0.59,20.17-5.2,29.59c-7.72,15.8-8.73,32.53-5.07,49.42
			c1.2,5.51,4.34,10.78,7.34,15.69c6.06,9.9,13,19.27,18.91,29.26c7.93,13.42,15.96,26.88,22.6,40.96
			c7.74,16.4,11.79,33.96,10.47,52.31c-1.37,19.08-7.96,36.39-18.59,52.23c-1.92,2.86-4.26,4.35-7.86,3.1
			c-1.95-4.23,0.12-8.24,0.6-12.27c1.04-8.81,1.5-17.58,1.27-26.49c-0.33-12.82-2.48-25.26-5.86-37.51
			c-2.96-10.74-7.35-20.89-13.96-29.97c-1.46-2-2.73-4.28-6.56-4.48c0.19,2.12,0.16,3.99,0.56,5.76c1.66,7.43,3.9,14.75,5.07,22.25
			c1.89,12.11,1.45,24.26-1.7,36.17c-0.59,2.24-1.05,5.64-4.34,5.44c-2.95-0.18-3-3.35-3.45-5.52c-3.12-15.3-9.33-29.35-17.16-42.74
			c-1.73-2.96-3.86-5.71-6.02-8.38C649.59,856.32,649.43,856.45,645.64,856.65z"/>
		<path class="st2" d="M562.37,276.81c-4.71-0.31-9.42-0.55-14.12-0.95c-4.23-0.36-7.15-2.77-8.49-6.66
			c-2.4-6.96-6.19-12.58-12.87-16.18c-3.49-1.88-4.11-5.33-3.12-9.02c2.14-8.07,4.27-16.14,6.49-24.18
			c11.12-40.23,22.29-80.44,33.39-120.68c1.86-6.74,4.33-13.03,9.64-17.95c10.64-9.87,25.05-7.96,32.42,4.49
			c3.72,6.29,4.92,13.19,4.52,20.43c-0.12,2.14-0.96,3.56-2.87,4.83c-8.12,5.41-12.32,13.35-12.77,22.89
			c-0.38,7.95,0.03,15.97,0.57,23.93c1.78,26.31,5.15,52.39,12.32,77.87c1.81,6.44,1.01,8.18-4.58,11.72
			c-0.92,0.58-1.82,1.22-2.8,1.68c-9.28,4.35-15.11,11.64-18.22,21.26c-1.27,3.93-4,6-8.05,6.14c-3.81,0.13-7.63,0.03-11.44,0.03
			C562.38,276.58,562.38,276.7,562.37,276.81z"/>
		<path class="st3" d="M549.29,141.95c-0.2,4.25-2.12,8.32-5.38,11.54c-0.94,0.93-3.46,1.08-4.86,0.54
			c-3.77-1.43-5.08-5.37-3.74-9.3c0.51-1.5,0.62-3.13,0.99-4.68c0.73-3,3.94-5.3,6.82-4.93
			C546.69,135.57,549.19,138.16,549.29,141.95z"/>
		<path class="st4" d="M541.75,167.82c-0.4,5.67-2.52,9.75-6.2,12.98c-0.67,0.59-2.06,0.87-2.93,0.63
			c-4.29-1.19-6.33-5.91-4.72-10.25c0.43-1.15,0.51-2.43,0.7-3.65c0.48-3.07,4-6.39,6.58-5.9
			C538.61,162.26,542.14,165.35,541.75,167.82z"/>
		<path class="st3" d="M555.81,116.23c-0.47,3.25-1.57,6.82-4.3,9.73c-1.68,1.79-3.34,3.41-6.08,1.95c-2.7-1.44-4.89-5.1-4.32-7.55
			c0.57-2.43,1.16-4.87,1.94-7.24c0.86-2.62,4.32-4.58,6.92-4.13C553.62,109.62,555.87,112.18,555.81,116.23z"/>
		<path class="st3" d="M534,194.58c-0.41,3.94-2,7.85-5.33,11.01c-1.91,1.81-3.76,1.85-5.84,0.36c-3.16-2.26-4.02-5.17-2.77-8.9
			c0.51-1.51,0.6-3.15,0.99-4.71c0.75-2.99,4.06-5.26,6.94-4.83C531.6,188.04,533.99,190.64,534,194.58z"/>
		<path class="st3" d="M564.37,90.23c-1.36,3.05-2.42,6.3-4.2,9.08c-0.91,1.42-3.12,2.81-4.73,2.8c-2.59,0-4.56-1.9-5.54-4.49
			c-0.88-2.32,0.66-10.48,2.32-12.29c2.2-2.4,4.79-3.2,7.25-2.24C562.29,84.21,563.66,86.44,564.37,90.23z"/>
		<path class="st3" d="M527.24,221.27c-1.27,2.91-2.32,5.94-3.89,8.68c-1.03,1.8-2.56,3.75-5.15,3.2c-2.61-0.56-4.73-2.07-5.41-4.74
			c-1.08-4.2,0.3-8.2,2.17-11.8c1.38-2.67,4.66-3.5,7.04-2.74C525.01,214.83,526.59,217.29,527.24,221.27z"/>
	</g>
</g>
</svg>
